<svg xmlns="http://www.w3.org/2000/svg" xmlns:svg="http://www.w3.org/2000/svg" id="svg2" width="62.496" height="62.496" version="1.1" viewBox="0 0 58.59 58.59"><metadata id="metadata7"/><g id="layer1" transform="translate(0.05023732,-993.77466)"><g id="g4198" style="fill:#fff;fill-opacity:1"><path id="path4136" d="m -747.89311,-737.06134 c 0,-2.07696 1.6837,-3.76066 3.76066,-3.76066 2.07696,0 3.76066,1.6837 3.76066,3.76066 l 0.0634,26.21875 c 0,2.07254 -1.68012,3.75266 -3.75266,3.75266 -2.07253,0 -3.75265,-1.68013 -3.75265,-3.75266 z" transform="matrix(-0.70710678,-0.70710678,0.70710678,-0.70710678,0,0)" style="opacity:1;fill:#fff;fill-opacity:1;stroke:#000;stroke-width:2.5;stroke-linecap:butt;stroke-linejoin:miter;stroke-miterlimit:4;stroke-dasharray:none;stroke-dashoffset:0;stroke-opacity:1"/><path id="path4136-0" d="m 37.662102,1020.0186 c -1.468656,1.4686 -3.849804,1.4686 -5.318459,0 -1.468656,-1.4686 -1.468656,-3.8497 0,-5.3184 l 18.494913,-18.58426 c 1.46553,-1.46551 3.841616,-1.46551 5.307146,0 1.465523,1.4655 1.465516,3.84157 -7e-6,5.30706 z" style="opacity:1;fill:#fff;fill-opacity:1;stroke:#000;stroke-width:2.5;stroke-linecap:butt;stroke-linejoin:miter;stroke-miterlimit:4;stroke-dasharray:none;stroke-dashoffset:0;stroke-opacity:1"/><path id="path4136-2" d="m 56.196355,1044.6499 c 1.4687,1.4686 1.4687,3.8498 0,5.3184 -1.4686,1.4686 -3.8497,1.4686 -5.3183,0 l -18.5843,-18.4946 c -1.4655,-1.4655 -1.4655,-3.8416 0,-5.3071 1.4655,-1.4655 3.8415,-1.4655 5.307,0 z" style="opacity:1;fill:#fff;fill-opacity:1;stroke:#000;stroke-width:2.5;stroke-linecap:butt;stroke-linejoin:miter;stroke-miterlimit:4;stroke-dasharray:none;stroke-dashoffset:0;stroke-opacity:1"/><path id="path4136-0-7" d="m 26.193655,1014.647 c 1.4686,1.4687 1.4686,3.8498 0,5.3185 -1.4686,1.4686 -3.8497,1.4686 -5.3184,0 l -18.58422,-18.4949 c -1.46551001,-1.4656 -1.46551001,-3.84164 0,-5.30717 1.4655,-1.46552 3.84157,-1.46551 5.30702,1e-5 z" style="opacity:1;fill:#fff;fill-opacity:1;stroke:#000;stroke-width:2.5;stroke-linecap:butt;stroke-linejoin:miter;stroke-miterlimit:4;stroke-dasharray:none;stroke-dashoffset:0;stroke-opacity:1"/></g></g></svg>