<svg xmlns="http://www.w3.org/2000/svg" xmlns:svg="http://www.w3.org/2000/svg" id="svg2" width="80mm" height="80mm" version="1.1" viewBox="0 0 283.465 283.465"><metadata id="metadata7"/><g id="layer1" transform="translate(409.24858,-489.27619)"><g id="g10022" transform="translate(69.5,-2.573435)"><path id="path9866-5-1" d="m -322.15796,579.63609 c -6.62219,0.18011 -10.28041,-1.0046 -10.28041,-1.0046 0,0 0.43533,14.53322 7.26661,34.4243 -12.19845,-1.59397 -12.19845,-1.59177 -24.39691,0 6.83128,-19.89108 7.26661,-34.4243 7.26661,-34.4243 0,0 -3.65822,1.18471 -10.28041,1.0046 5.15695,-2.67893 10.49063,-6.44401 15.21226,-14.91614 4.72162,8.47213 10.0553,12.23721 15.21225,14.91614 z" style="fill:#fff;fill-rule:evenodd;stroke:#000;stroke-width:3;stroke-linecap:butt;stroke-linejoin:miter;stroke-miterlimit:4;stroke-dasharray:none;stroke-opacity:1;fill-opacity:1"/><path id="path9866-5-1-7" d="m -391.25119,619.40084 c 0.18011,6.62219 -1.0046,10.28041 -1.0046,10.28041 0,0 14.53322,-0.43533 34.4243,-7.26661 -1.59397,12.19845 -1.59177,12.19845 0,24.39691 -19.89108,-6.83128 -34.4243,-7.26661 -34.4243,-7.26661 0,0 1.18471,3.65822 1.0046,10.28041 -2.67893,-5.15695 -6.44401,-10.49063 -14.91614,-15.21226 8.47213,-4.72162 12.23721,-10.0553 14.91614,-15.21225 z" style="fill:#fff;fill-rule:evenodd;stroke:#000;stroke-width:3;stroke-linecap:butt;stroke-linejoin:miter;stroke-miterlimit:4;stroke-dasharray:none;stroke-opacity:1;fill-opacity:1"/><path id="path9866-5-1-7-2" d="m -352.58246,688.05253 c 6.62219,-0.18011 10.28041,1.0046 10.28041,1.0046 0,0 -0.43533,-14.53322 -7.26661,-34.4243 12.19845,1.59397 12.19845,1.59177 24.39691,0 -6.83128,19.89108 -7.26661,34.4243 -7.26661,34.4243 0,0 3.65822,-1.18471 10.28041,-1.0046 -5.15695,2.67893 -10.49063,6.44401 -15.21226,14.91614 -4.72162,-8.47213 -10.0553,-12.23721 -15.21225,-14.91614 z" style="fill:#fff;fill-rule:evenodd;stroke:#000;stroke-width:3;stroke-linecap:butt;stroke-linejoin:miter;stroke-miterlimit:4;stroke-dasharray:none;stroke-opacity:1;fill-opacity:1"/><path id="path9866-5-1-7-29" d="m -284.93261,649.82534 c -0.18011,-6.62219 1.0046,-10.28041 1.0046,-10.28041 0,0 -14.53322,0.43533 -34.4243,7.26661 1.59397,-12.19845 1.59177,-12.19845 0,-24.39691 19.89108,6.83128 34.4243,7.26661 34.4243,7.26661 0,0 -1.18471,-3.65822 -1.0046,-10.28041 2.67893,5.15695 6.44401,10.49063 14.91614,15.21226 -8.47213,4.72162 -12.23721,10.0553 -14.91614,15.21225 z" style="fill:#fff;fill-rule:evenodd;stroke:#000;stroke-width:3;stroke-linecap:butt;stroke-linejoin:miter;stroke-miterlimit:4;stroke-dasharray:none;stroke-opacity:1;fill-opacity:1"/><path id="path4149-3" d="m -320.09221,704.85262 c -46.33005,58.29824 109.12022,100.96744 95.90136,22.82314 l -13.81563,-56.31337 c -2.87278,-13.95459 -19.51678,-7.71479 -19.77195,-0.76025 l 2.77792,8.5863 c -10.25472,-34.47639 -30.15873,-18.56102 -27.27412,-4.54569 -6.66677,-25.14846 -29.97984,-14.89847 -20.20305,10.10153 l -22.22335,-56.82108 c -6.16071,-12.94643 -29.63407,-7.07197 -22.22336,10.6066 l 36.11295,89.14596 z" style="fill:#fff;fill-opacity:1;fill-rule:evenodd;stroke:#000;stroke-width:3;stroke-linecap:butt;stroke-linejoin:round;stroke-miterlimit:4;stroke-dasharray:none;stroke-opacity:1"/></g></g></svg>